#N canvas 207 93 1234 777 10;
#X obj 412 -1068 adc~;
#X obj 533 -833 unpack;
#X floatatom 533 -783 0 0 0 0 - - -;
#X floatatom 547 -806 0 0 0 0 - - -;
#X obj 533 -873 route 1 2 3 4;
#X obj 616 -833 unpack;
#X floatatom 616 -783 0 0 0 0 - - -;
#X floatatom 630 -806 0 0 0 0 - - -;
#X obj 700 -833 unpack;
#X floatatom 700 -783 0 0 0 0 - - -;
#X floatatom 714 -806 0 0 0 0 - - -;
#X obj 391 -833 unpack;
#X floatatom 391 -783 0 0 0 0 - - -;
#X floatatom 405 -806 0 0 0 0 - - -;
#X floatatom 468 -783 0 0 0 0 - - -;
#X obj 283 -783 print attack;
#X obj 192 -783 print pitch;
#X text 671 -892 number of peaks to find (1-100 \, default 20);
#X text 671 -870 number of peaks to output (default 0.);
#X obj 412 -904 fiddle~ 1024 1 20 3;
#X text 540 -759 individual sinusoidal components;
#X text 468 -761 amplitude;
#X text 478 -746 (dB);
#X text 391 -761 raw pitch;
#X text 378 -737 and amplitude;
#X text 289 -763 bang on;
#X text 289 -741 attack;
#X text 187 -763 cooked pitch;
#X text 204 -746 output;
#X obj 420 -569 float;
#X obj 447 -691 mtof;
#X floatatom 422 -519 5 0 0 0 - - -;
#X obj 327 -647 metro 100;
#X obj 327 -694 tgl 15 0 empty empty empty 17 7 0 10 -262144 -1 -1
0 1;
#X floatatom 383 -698 5 0 0 0 - - -;
#X obj 631 -617 timer;
#X floatatom 630 -568 5 0 0 0 - - -;
#X obj 615 -683 bng 15 250 50 0 empty empty empty 17 7 0 10 -262144
-1 -1;
#X obj 529 -551 timer;
#X floatatom 528 -502 5 0 0 0 - - -;
#X obj 513 -617 bng 15 250 50 0 empty empty empty 17 7 0 10 -262144
-1 -1;
#X msg 244 -426 disconnect;
#X text 183 -521 SENDING;
#X msg 187 -494 connect localhost 3000;
#X obj 255 -375 netsend;
#X msg 337 -428 send pitch \$1;
#X connect 0 0 19 0;
#X connect 1 0 2 0;
#X connect 1 1 3 0;
#X connect 4 0 1 0;
#X connect 4 1 5 0;
#X connect 4 2 8 0;
#X connect 5 0 6 0;
#X connect 5 1 7 0;
#X connect 8 0 9 0;
#X connect 8 1 10 0;
#X connect 11 0 12 0;
#X connect 11 0 30 0;
#X connect 11 1 13 0;
#X connect 19 0 16 0;
#X connect 19 1 15 0;
#X connect 19 2 11 0;
#X connect 19 2 37 0;
#X connect 19 3 14 0;
#X connect 19 4 4 0;
#X connect 29 0 31 0;
#X connect 30 0 29 1;
#X connect 31 0 40 0;
#X connect 31 0 45 0;
#X connect 32 0 29 0;
#X connect 33 0 32 0;
#X connect 34 0 32 1;
#X connect 35 0 36 0;
#X connect 37 0 35 1;
#X connect 37 0 35 0;
#X connect 38 0 39 0;
#X connect 40 0 38 1;
#X connect 40 0 38 0;
#X connect 41 0 44 0;
#X connect 43 0 44 0;
#X connect 45 0 44 0;
